<?xml version="1.0" encoding="utf-8"?>
<!-- Generator: Adobe Illustrator 24.1.0, SVG Export Plug-In . SVG Version: 6.00 Build 0)  -->
<svg version="1.1" xmlns="http://www.w3.org/2000/svg" xmlns:xlink="http://www.w3.org/1999/xlink" x="0px" y="0px"
	 viewBox="0 0 1000 1000" style="enable-background:new 0 0 1000 1000;" xml:space="preserve">
<style type="text/css">
	.st0{display:none;}
	.st1{display:inline;fill:url(#SVGID_1_);}
	.st2{display:inline;fill:none;stroke:#FFFFFF;stroke-width:48;stroke-miterlimit:10;}
	.st3{fill:none;stroke:#FFFFFF;stroke-width:48;stroke-miterlimit:10;}
</style>
<g id="Layer_2" class="st0">
	
		<radialGradient id="SVGID_1_" cx="500.062" cy="500.4336" r="895.0558" gradientTransform="matrix(0.8052 0 0 0.4533 97.3736 273.1489)" gradientUnits="userSpaceOnUse">
		<stop  offset="0" style="stop-color:#3EB1DD"/>
		<stop  offset="0.7742" style="stop-color:#3D8BDD"/>
	</radialGradient>
	<rect x="0" class="st1" width="1000" height="1000"/>
</g>
<g id="Layer_14" class="st0">
	<polyline class="st2" points="292.06,254.43 408.06,254.43 408.06,756.43 	"/>
	<path class="st2" d="M513.58,448.27c0-217.06,263.44-243.67,263.42-11.34c-0.02,216.15-277.21-20.07-277.21,205.93v89.68H773.9
		v-79.49"/>
</g>
<g id="Layer_3">
	<polyline class="st3" points="292.06,254.43 408.06,254.43 408.06,756.43 	"/>
	<polyline class="st3" points="507,254 623,254 623,756 	"/>
</g>
<g id="Layer_1" class="st0">
	<polyline class="st2" points="136.06,253.43 252.06,253.43 252.06,755.43 	"/>
	<circle class="st2" cx="611.09" cy="492.34" r="212.76"/>
</g>
<g id="Layer_13" class="st0">
	<circle class="st2" cx="498.96" cy="453.51" r="158.53"/>
	<path class="st2" d="M682.33,453.51c0,254.58-28.43,289.8-198.39,282.41"/>
</g>
<g id="Layer_12" class="st0">
	<circle class="st2" cx="500.44" cy="606.06" r="129.56"/>
	<circle class="st2" cx="498.25" cy="369.36" r="89.15"/>
</g>
<g id="Layer_11" class="st0">
	<path class="st2" d="M305.12,348.22V261h390.47v127.96c-329.35,0-373.49,44.67-373.49,350.43h101.86"/>
</g>
<g id="Layer_5" class="st0">
	<circle class="st2" cx="494.26" cy="546.28" r="158.53"/>
	<path class="st2" d="M310.89,546.28c0-254.58,28.43-289.8,198.39-282.41"/>
</g>
<g id="Layer_6" class="st0">
	<path class="st2" d="M544.29,261.99c0,0-105,0.26-153,0.26v121.71c398.05-1.4,422,379.03-0.58,351.81l-0.42-72.77"/>
</g>
<g id="Layer_10" class="st0">
	<line class="st2" x1="577.59" y1="383.5" x2="577.59" y2="763.78"/>
	<path class="st2" d="M480.5,234.75C480.5,412,474.52,474,331.11,474v82.18H699"/>
</g>
<g id="Layer_7" class="st0">
	<path class="st2" d="M323.49,295.99h72.8c81.85,0,148.2,66.35,148.2,148.2v55.9"/>
	<path class="st2" d="M352.89,496.59h227.5c63.9,0,115.7,51.8,115.7,115.7s-51.8,115.7-115.7,115.7h-208"/>
</g>
<g id="Layer_8" class="st0">
	<path class="st2" d="M393.58,441.7c0-217.06,263.44-243.67,263.42-11.34c-0.02,216.15-277.21-20.07-277.21,205.93v89.68H653.9
		v-79.49"/>
</g>
<g id="Layer_9" class="st0">
	<polyline class="st2" points="408,254 524,254 524,756 	"/>
</g>
<g id="Layer_4" class="st0">
	<circle class="st2" cx="496.76" cy="496.86" r="212.76"/>
</g>
</svg>
