<svg width="400" height="160" viewBox="70 320 1100 400" xmlns="http://www.w3.org/2000/svg"><path d="m619.34 469.3h171.68v28.09h-171.68z" fill="#ffce00" transform="matrix(.9416 -.3367 .3367 .9416 -121.5614 265.6297)"/><path d="m690.83 397.82h28.09v171.68h-28.09z" fill="#ffce00" transform="matrix(.9416 -.3367 .3367 .9416 -121.6885 265.5519)"/><path d="m690.67 398.15h28.09v171.68h-28.09z" fill="#ffce00" transform="matrix(.4278 -.9039 .9039 .4278 -34.2059 913.9512)"/><path d="m618.43 469.96h171.68v28.09h-171.68z" fill="#ffce00" transform="matrix(.4277 -.9039 .9039 .4277 -34.4606 913.5682)"/><g fill="none" stroke="#ffce00" stroke-miterlimit="10" stroke-width="30"><path d="m211.42 643.54h111.84"/><path d="m267.34 601.07v95.49"/><path d="m348.63 595.65h116.38v100.91"/><path d="m463.01 667.82c-45-15-102.28-19-102.28 28.74"/><path d="m521.23 696.56v-62.74c51.78 0 121.49-15.51 121.49 62.74"/><path d="m704.28 615.29v81.27"/><path d="m861.83 581.49h-67.82v115.07"/><path d="m858.76 655.93h-111.76"/><path d="m878.34 681.12h133.67v-115.61"/><path d="m897.01 565.32c0 27.34 22.16 49.5 49.5 49.5h62.5"/></g></svg>